<mxfile host="65bd71144e">
    <diagram id="Ctlm13mbMicQcKdTrapp" name="Page-1">
        <mxGraphModel dx="980" dy="783" grid="1" gridSize="10" guides="1" tooltips="1" connect="1" arrows="1" fold="1" page="1" pageScale="1" pageWidth="1920" pageHeight="1200" background="#ffffff" math="0" shadow="0">
            <root>
                <mxCell id="0"/>
                <mxCell id="1" parent="0"/>
                <mxCell id="30" value="" style="shape=mxgraph.mockup.containers.marginRect;rectMarginTop=10;strokeColor=#666666;strokeWidth=1;dashed=0;rounded=1;arcSize=5;recursiveResize=0;fontColor=#000000;fillColor=none;" vertex="1" parent="1">
                    <mxGeometry x="10" y="10" width="550" height="320" as="geometry"/>
                </mxCell>
                <mxCell id="31" value="Test Host" style="shape=rect;strokeColor=none;fillColor=#008cff;strokeWidth=1;dashed=0;rounded=1;arcSize=20;fontColor=#ffffff;fontSize=17;spacing=2;spacingTop=-2;align=left;autosize=1;spacingLeft=4;resizeWidth=0;resizeHeight=0;perimeter=none;" vertex="1" parent="30">
                    <mxGeometry x="5" width="100" height="30" as="geometry"/>
                </mxCell>
                <mxCell id="27" value="" style="shape=mxgraph.mockup.containers.marginRect;rectMarginTop=10;strokeColor=#666666;strokeWidth=1;dashed=0;rounded=1;arcSize=5;recursiveResize=0;fontColor=#000000;fillColor=none;" vertex="1" parent="30">
                    <mxGeometry x="130" y="30" width="410" height="280" as="geometry"/>
                </mxCell>
                <mxCell id="28" value="Docker Compose project" style="shape=rect;strokeColor=none;fillColor=#008cff;strokeWidth=1;dashed=0;rounded=1;arcSize=20;fontColor=#ffffff;fontSize=17;spacing=2;spacingTop=-2;align=left;autosize=1;spacingLeft=4;resizeWidth=0;resizeHeight=0;perimeter=none;" vertex="1" parent="27">
                    <mxGeometry x="5" width="210" height="30" as="geometry"/>
                </mxCell>
                <mxCell id="6" value="test-client" style="sketch=0;html=1;dashed=0;whitespace=wrap;fillColor=#2875E2;strokeColor=#ffffff;points=[[0.005,0.63,0],[0.1,0.2,0],[0.9,0.2,0],[0.5,0,0],[0.995,0.63,0],[0.72,0.99,0],[0.5,1,0],[0.28,0.99,0]];verticalLabelPosition=bottom;align=center;verticalAlign=top;shape=mxgraph.kubernetes.icon;prIcon=pod;fontColor=#000000;" vertex="1" parent="27">
                    <mxGeometry x="20" y="90" width="50" height="48" as="geometry"/>
                </mxCell>
                <mxCell id="10" style="edgeStyle=none;html=1;entryX=0.005;entryY=0.63;entryDx=0;entryDy=0;entryPerimeter=0;fontColor=#000000;fillColor=#0050ef;strokeColor=#001DBC;" edge="1" parent="27" source="6" target="3">
                    <mxGeometry relative="1" as="geometry">
                        <mxPoint x="120.25" y="120.24000000000001" as="targetPoint"/>
                    </mxGeometry>
                </mxCell>
                <mxCell id="21" value="elasticvue" style="sketch=0;html=1;dashed=0;whitespace=wrap;fillColor=#2875E2;strokeColor=#ffffff;points=[[0.005,0.63,0],[0.1,0.2,0],[0.9,0.2,0],[0.5,0,0],[0.995,0.63,0],[0.72,0.99,0],[0.5,1,0],[0.28,0.99,0]];verticalLabelPosition=bottom;align=center;verticalAlign=top;shape=mxgraph.kubernetes.icon;prIcon=pod;fontColor=#000000;" vertex="1" parent="27">
                    <mxGeometry x="70" y="190" width="50" height="48" as="geometry"/>
                </mxCell>
                <mxCell id="3" value="api-gw-server" style="sketch=0;html=1;dashed=0;whitespace=wrap;fillColor=#2875E2;strokeColor=#ffffff;points=[[0.005,0.63,0],[0.1,0.2,0],[0.9,0.2,0],[0.5,0,0],[0.995,0.63,0],[0.72,0.99,0],[0.5,1,0],[0.28,0.99,0]];verticalLabelPosition=bottom;align=center;verticalAlign=top;shape=mxgraph.kubernetes.icon;prIcon=pod;fontColor=#000000;" vertex="1" parent="27">
                    <mxGeometry x="215" y="120" width="50" height="48" as="geometry"/>
                </mxCell>
                <mxCell id="24" style="edgeStyle=none;html=1;fontColor=#000000;fillColor=#0050ef;strokeColor=#001DBC;exitX=0.9;exitY=0.2;exitDx=0;exitDy=0;exitPerimeter=0;" edge="1" parent="27" source="21" target="3">
                    <mxGeometry relative="1" as="geometry">
                        <mxPoint x="539.75" y="320.24" as="sourcePoint"/>
                        <mxPoint x="315.20000000000005" y="201.61599999999999" as="targetPoint"/>
                    </mxGeometry>
                </mxCell>
                <mxCell id="17" value="clam-av" style="sketch=0;html=1;dashed=0;whitespace=wrap;fillColor=#2875E2;strokeColor=#ffffff;points=[[0.005,0.63,0],[0.1,0.2,0],[0.9,0.2,0],[0.5,0,0],[0.995,0.63,0],[0.72,0.99,0],[0.5,1,0],[0.28,0.99,0]];verticalLabelPosition=bottom;align=center;verticalAlign=top;shape=mxgraph.kubernetes.icon;prIcon=pod;fontColor=#000000;" vertex="1" parent="27">
                    <mxGeometry x="330" y="80" width="50" height="48" as="geometry"/>
                </mxCell>
                <mxCell id="19" style="edgeStyle=none;html=1;entryX=0.1;entryY=0.2;entryDx=0;entryDy=0;entryPerimeter=0;fontColor=#000000;fillColor=#0050ef;strokeColor=#001DBC;exitX=0.995;exitY=0.63;exitDx=0;exitDy=0;exitPerimeter=0;" edge="1" parent="27" source="3" target="17">
                    <mxGeometry relative="1" as="geometry">
                        <mxPoint x="555" y="189.5999999999999" as="sourcePoint"/>
                        <mxPoint x="740.25" y="70.24000000000001" as="targetPoint"/>
                    </mxGeometry>
                </mxCell>
                <mxCell id="2" value="mock-server" style="sketch=0;html=1;dashed=0;whitespace=wrap;fillColor=#2875E2;strokeColor=#ffffff;points=[[0.005,0.63,0],[0.1,0.2,0],[0.9,0.2,0],[0.5,0,0],[0.995,0.63,0],[0.72,0.99,0],[0.5,1,0],[0.28,0.99,0]];verticalLabelPosition=bottom;align=center;verticalAlign=top;shape=mxgraph.kubernetes.icon;prIcon=pod;fontColor=#000000;" vertex="1" parent="27">
                    <mxGeometry x="330" y="180" width="50" height="48" as="geometry"/>
                </mxCell>
                <mxCell id="14" style="edgeStyle=none;html=1;entryX=0.1;entryY=0.2;entryDx=0;entryDy=0;entryPerimeter=0;fontColor=#000000;fillColor=#0050ef;strokeColor=#001DBC;exitX=0.995;exitY=0.63;exitDx=0;exitDy=0;exitPerimeter=0;" edge="1" parent="27" source="3" target="2">
                    <mxGeometry relative="1" as="geometry">
                        <mxPoint x="240" y="181.125" as="sourcePoint"/>
                        <mxPoint x="375" y="219.5999999999999" as="targetPoint"/>
                    </mxGeometry>
                </mxCell>
                <mxCell id="33" style="edgeStyle=none;html=1;fontColor=#000000;fillColor=#60a917;strokeColor=#2D7600;entryX=-0.001;entryY=0.199;entryDx=0;entryDy=0;entryPerimeter=0;" edge="1" parent="30" source="26" target="27">
                    <mxGeometry relative="1" as="geometry">
                        <mxPoint x="255" y="390" as="targetPoint"/>
                    </mxGeometry>
                </mxCell>
                <mxCell id="26" value="IDE" style="editableCssRules=.*;shape=image;verticalLabelPosition=bottom;labelBackgroundColor=#ffffff;verticalAlign=top;aspect=fixed;imageAspect=0;image=data:image/svg+xml,PHN2ZyB4bWxucz0iaHR0cDovL3d3dy53My5vcmcvMjAwMC9zdmciIHhtbG5zOnY9Imh0dHBzOi8vdmVjdGEuaW8vbmFubyIgd2lkdGg9IjIwIiBoZWlnaHQ9IjExLjI1OTk5OTI3NTIwNzUyIiBmaWxsLXJ1bGU9ImV2ZW5vZGQiIHZpZXdCb3g9IjAgMCAyMCAxMS4yNTk5OTkyNzUyMDc1MiI+JiN4YTsJPHN0eWxlIHR5cGU9InRleHQvY3NzIj4mI3hhOwkuc3Qwe2ZpbGw6IzQyODVmNDt9JiN4YTsJLnN0MXtmaWxsOiM2NjlkZjY7fSYjeGE7CS5zdDJ7ZmlsbDojYWVjYmZhO30mI3hhOwk8L3N0eWxlPiYjeGE7CTxwYXRoIGNsYXNzPSJzdDEiIGQ9Ik00LjY4IDEuNDJIMi40MkwwIDUuNjdsMi40MiA0LjI2aDIuMjZMMi4yNyA1LjY3eiIvPiYjeGE7CTxwYXRoIGNsYXNzPSJzdDAiIGQ9Ik0wIDUuNjdsMS4xMSAxLjk3IDEuNDYtMS40NS0uMy0uNTJ6Ii8+JiN4YTsJPHBhdGggY2xhc3M9InN0MiIgZD0iTTEzIDBINy4xMkwzLjgxIDUuNjNsMy4zMSA1LjU5SDEzbDMuMjktNS41OXptLTIuOTMgOC4zNmEyLjY0IDIuNjQgMCAxIDEgMi42Ni0yLjY0IDIuNjUgMi42NSAwIDAgMS0yLjY2IDIuNjR6TTIuNDIgMS40MkwwIDUuNjlsMS4xMSAxLjk3IDEuMTYtMS45NyAyLjQxLTQuMjd6Ii8+JiN4YTsJPHBhdGggY2xhc3M9InN0MSIgZD0iTTEzIC4wOGgwbC0xLjcgMy4zM2EyLjY2IDIuNjYgMCAwIDEtMS4yNSA1IDIuNjIgMi42MiAwIDAgMS0xLjE4LS4yN2wtMS43NSAzLjEySDEzbDMuMjktNS42M3ptMi4zMiA5Ljg1aDIuMjdMMjAgNS42N2wtMi40MS00LjI1aC0yLjI3bDIuNDEgNC4yNXoiPiYjeGE7CTxwYXRoIGNsYXNzPSJzdDAiIGQ9Ik0yMCA1LjY3TDE4Ljg5IDMuN2wtMS40NiAxLjQ2LjMuNTF6Ii8+JiN4YTsJPHBhdGggY2xhc3M9InN0MiIgZD0iTTE3LjU5IDkuOTNMMjAgNS42NWwtMS4xMS0xLjk3LTEuMTYgMS45Ny0yLjQxIDQuMjh6Ii8+JiN4YTs8L3BhdGg+PC9zdmc+;fontColor=#000000;" vertex="1" parent="30">
                    <mxGeometry x="19.55000000000001" y="83" width="70.91" height="39" as="geometry"/>
                </mxCell>
                <mxCell id="36" style="edgeStyle=none;html=1;fontColor=#000000;fillColor=#60a917;strokeColor=#2D7600;" edge="1" parent="30" source="35" target="27">
                    <mxGeometry relative="1" as="geometry"/>
                </mxCell>
                <mxCell id="35" value="Browser" style="aspect=fixed;html=1;points=[];align=center;image;fontSize=12;image=img/lib/azure2/general/Browser.svg;fontColor=#000000;fillColor=none;labelBackgroundColor=none;" vertex="1" parent="30">
                    <mxGeometry x="25.45999999999998" y="184" width="65" height="52" as="geometry"/>
                </mxCell>
            </root>
        </mxGraphModel>
    </diagram>
</mxfile>